<mxfile host="app.diagrams.net" modified="2023-05-05T06:00:35.723Z" agent="Mozilla/5.0 (Windows NT 10.0; Win64; x64) AppleWebKit/537.36 (KHTML, like Gecko) Chrome/112.0.0.0 Safari/537.36" etag="N-UebZqvfIGMKlsf9M7x" version="21.2.9" type="google">
  <diagram name="第 1 页" id="CnVZQLiM2wacHH_nSjSw">
    <mxGraphModel grid="1" page="1" gridSize="10" guides="1" tooltips="1" connect="1" arrows="1" fold="1" pageScale="1" pageWidth="827" pageHeight="1169" math="0" shadow="0">
      <root>
        <mxCell id="0" />
        <mxCell id="1" parent="0" />
        <mxCell id="1ZyQG0UOCEFSKXoRxgIf-1" value="&lt;font style=&quot;font-size: 20px;&quot;&gt;爬蟲機器人&lt;/font&gt;" style="rounded=0;whiteSpace=wrap;html=1;" vertex="1" parent="1">
          <mxGeometry x="360" y="70" width="120" height="60" as="geometry" />
        </mxCell>
        <mxCell id="1ZyQG0UOCEFSKXoRxgIf-2" value="" style="endArrow=none;html=1;rounded=0;entryX=0.5;entryY=1;entryDx=0;entryDy=0;" edge="1" parent="1" target="1ZyQG0UOCEFSKXoRxgIf-1">
          <mxGeometry width="50" height="50" relative="1" as="geometry">
            <mxPoint x="420" y="240" as="sourcePoint" />
            <mxPoint x="390" y="280" as="targetPoint" />
          </mxGeometry>
        </mxCell>
        <mxCell id="1ZyQG0UOCEFSKXoRxgIf-3" value="" style="endArrow=none;html=1;rounded=0;" edge="1" parent="1">
          <mxGeometry width="50" height="50" relative="1" as="geometry">
            <mxPoint x="100" y="240" as="sourcePoint" />
            <mxPoint x="700" y="240" as="targetPoint" />
            <Array as="points">
              <mxPoint x="420" y="240" />
            </Array>
          </mxGeometry>
        </mxCell>
        <mxCell id="1ZyQG0UOCEFSKXoRxgIf-4" value="會員" style="rounded=0;whiteSpace=wrap;html=1;" vertex="1" parent="1">
          <mxGeometry x="40" y="280" width="120" height="60" as="geometry" />
        </mxCell>
        <mxCell id="1ZyQG0UOCEFSKXoRxgIf-5" value="查詢" style="rounded=0;whiteSpace=wrap;html=1;" vertex="1" parent="1">
          <mxGeometry x="240" y="280" width="120" height="60" as="geometry" />
        </mxCell>
        <mxCell id="1ZyQG0UOCEFSKXoRxgIf-6" value="爬蟲(有會員)" style="rounded=0;whiteSpace=wrap;html=1;" vertex="1" parent="1">
          <mxGeometry x="440" y="280" width="120" height="60" as="geometry" />
        </mxCell>
        <mxCell id="1ZyQG0UOCEFSKXoRxgIf-8" value="登入" style="rounded=0;whiteSpace=wrap;html=1;" vertex="1" parent="1">
          <mxGeometry x="320" y="400" width="120" height="60" as="geometry" />
        </mxCell>
        <mxCell id="1ZyQG0UOCEFSKXoRxgIf-9" value="註冊/登入" style="rounded=0;whiteSpace=wrap;html=1;" vertex="1" parent="1">
          <mxGeometry x="120" y="400" width="120" height="60" as="geometry" />
        </mxCell>
        <mxCell id="1ZyQG0UOCEFSKXoRxgIf-10" value="查詢紀錄" style="rounded=0;whiteSpace=wrap;html=1;" vertex="1" parent="1">
          <mxGeometry x="320" y="521" width="120" height="60" as="geometry" />
        </mxCell>
        <mxCell id="1ZyQG0UOCEFSKXoRxgIf-11" value="爬蟲(無會員)" style="rounded=0;whiteSpace=wrap;html=1;" vertex="1" parent="1">
          <mxGeometry x="640" y="280" width="120" height="60" as="geometry" />
        </mxCell>
        <mxCell id="1ZyQG0UOCEFSKXoRxgIf-12" value="登入" style="rounded=0;whiteSpace=wrap;html=1;" vertex="1" parent="1">
          <mxGeometry x="520" y="400" width="120" height="60" as="geometry" />
        </mxCell>
        <mxCell id="1ZyQG0UOCEFSKXoRxgIf-13" value="爬蟲" style="rounded=0;whiteSpace=wrap;html=1;" vertex="1" parent="1">
          <mxGeometry x="720" y="400" width="120" height="60" as="geometry" />
        </mxCell>
        <mxCell id="1ZyQG0UOCEFSKXoRxgIf-14" value="爬蟲" style="rounded=0;whiteSpace=wrap;html=1;" vertex="1" parent="1">
          <mxGeometry x="520" y="521" width="120" height="60" as="geometry" />
        </mxCell>
        <mxCell id="1ZyQG0UOCEFSKXoRxgIf-15" value="" style="endArrow=none;html=1;rounded=0;exitX=0.5;exitY=0;exitDx=0;exitDy=0;" edge="1" parent="1" source="1ZyQG0UOCEFSKXoRxgIf-4">
          <mxGeometry width="50" height="50" relative="1" as="geometry">
            <mxPoint x="390" y="430" as="sourcePoint" />
            <mxPoint x="100" y="240" as="targetPoint" />
            <Array as="points">
              <mxPoint x="100" y="260" />
            </Array>
          </mxGeometry>
        </mxCell>
        <mxCell id="1ZyQG0UOCEFSKXoRxgIf-16" value="" style="endArrow=none;html=1;rounded=0;exitX=0.5;exitY=0;exitDx=0;exitDy=0;" edge="1" parent="1">
          <mxGeometry width="50" height="50" relative="1" as="geometry">
            <mxPoint x="299.5" y="280" as="sourcePoint" />
            <mxPoint x="299.5" y="240" as="targetPoint" />
            <Array as="points">
              <mxPoint x="299.5" y="260" />
            </Array>
          </mxGeometry>
        </mxCell>
        <mxCell id="1ZyQG0UOCEFSKXoRxgIf-17" value="" style="endArrow=none;html=1;rounded=0;exitX=0.5;exitY=0;exitDx=0;exitDy=0;" edge="1" parent="1">
          <mxGeometry width="50" height="50" relative="1" as="geometry">
            <mxPoint x="499.5" y="280" as="sourcePoint" />
            <mxPoint x="499.5" y="240" as="targetPoint" />
            <Array as="points">
              <mxPoint x="499.5" y="260" />
            </Array>
          </mxGeometry>
        </mxCell>
        <mxCell id="1ZyQG0UOCEFSKXoRxgIf-18" value="" style="endArrow=none;html=1;rounded=0;exitX=0.5;exitY=0;exitDx=0;exitDy=0;" edge="1" parent="1">
          <mxGeometry width="50" height="50" relative="1" as="geometry">
            <mxPoint x="699.5" y="280" as="sourcePoint" />
            <mxPoint x="699.5" y="240" as="targetPoint" />
            <Array as="points">
              <mxPoint x="699.5" y="260" />
            </Array>
          </mxGeometry>
        </mxCell>
        <mxCell id="1ZyQG0UOCEFSKXoRxgIf-21" value="" style="endArrow=none;html=1;rounded=0;entryX=0.5;entryY=1;entryDx=0;entryDy=0;" edge="1" parent="1" target="1ZyQG0UOCEFSKXoRxgIf-5">
          <mxGeometry width="50" height="50" relative="1" as="geometry">
            <mxPoint x="300" y="550" as="sourcePoint" />
            <mxPoint x="440" y="380" as="targetPoint" />
          </mxGeometry>
        </mxCell>
        <mxCell id="1ZyQG0UOCEFSKXoRxgIf-22" value="" style="endArrow=none;html=1;rounded=0;entryX=0;entryY=0.5;entryDx=0;entryDy=0;" edge="1" parent="1">
          <mxGeometry width="50" height="50" relative="1" as="geometry">
            <mxPoint x="300" y="429.5" as="sourcePoint" />
            <mxPoint x="320" y="429.5" as="targetPoint" />
          </mxGeometry>
        </mxCell>
        <mxCell id="1ZyQG0UOCEFSKXoRxgIf-23" value="" style="endArrow=none;html=1;rounded=0;entryX=0;entryY=0.5;entryDx=0;entryDy=0;" edge="1" parent="1">
          <mxGeometry width="50" height="50" relative="1" as="geometry">
            <mxPoint x="300" y="550.5" as="sourcePoint" />
            <mxPoint x="320" y="550.5" as="targetPoint" />
          </mxGeometry>
        </mxCell>
        <mxCell id="1ZyQG0UOCEFSKXoRxgIf-24" value="" style="endArrow=none;html=1;rounded=0;entryX=0.5;entryY=1;entryDx=0;entryDy=0;" edge="1" parent="1">
          <mxGeometry width="50" height="50" relative="1" as="geometry">
            <mxPoint x="500" y="550" as="sourcePoint" />
            <mxPoint x="500" y="340" as="targetPoint" />
          </mxGeometry>
        </mxCell>
        <mxCell id="1ZyQG0UOCEFSKXoRxgIf-25" value="" style="endArrow=none;html=1;rounded=0;entryX=0;entryY=0.5;entryDx=0;entryDy=0;" edge="1" parent="1">
          <mxGeometry width="50" height="50" relative="1" as="geometry">
            <mxPoint x="500" y="429.5" as="sourcePoint" />
            <mxPoint x="520" y="429.5" as="targetPoint" />
          </mxGeometry>
        </mxCell>
        <mxCell id="1ZyQG0UOCEFSKXoRxgIf-26" value="" style="endArrow=none;html=1;rounded=0;entryX=0;entryY=0.5;entryDx=0;entryDy=0;" edge="1" parent="1">
          <mxGeometry width="50" height="50" relative="1" as="geometry">
            <mxPoint x="500" y="550.5" as="sourcePoint" />
            <mxPoint x="520" y="550.5" as="targetPoint" />
          </mxGeometry>
        </mxCell>
        <mxCell id="1ZyQG0UOCEFSKXoRxgIf-27" value="" style="endArrow=none;html=1;rounded=0;entryX=0.5;entryY=1;entryDx=0;entryDy=0;" edge="1" parent="1">
          <mxGeometry width="50" height="50" relative="1" as="geometry">
            <mxPoint x="699.5" y="430" as="sourcePoint" />
            <mxPoint x="699.5" y="340" as="targetPoint" />
          </mxGeometry>
        </mxCell>
        <mxCell id="1ZyQG0UOCEFSKXoRxgIf-28" value="" style="endArrow=none;html=1;rounded=0;entryX=0;entryY=0.5;entryDx=0;entryDy=0;" edge="1" parent="1">
          <mxGeometry width="50" height="50" relative="1" as="geometry">
            <mxPoint x="700" y="429.5" as="sourcePoint" />
            <mxPoint x="720" y="429.5" as="targetPoint" />
          </mxGeometry>
        </mxCell>
        <mxCell id="1ZyQG0UOCEFSKXoRxgIf-29" value="購買" style="rounded=0;whiteSpace=wrap;html=1;" vertex="1" parent="1">
          <mxGeometry x="120" y="521" width="120" height="60" as="geometry" />
        </mxCell>
        <mxCell id="1ZyQG0UOCEFSKXoRxgIf-33" value="" style="endArrow=none;html=1;rounded=0;entryX=0.5;entryY=1;entryDx=0;entryDy=0;" edge="1" parent="1">
          <mxGeometry width="50" height="50" relative="1" as="geometry">
            <mxPoint x="100" y="550" as="sourcePoint" />
            <mxPoint x="100" y="340" as="targetPoint" />
          </mxGeometry>
        </mxCell>
        <mxCell id="1ZyQG0UOCEFSKXoRxgIf-34" value="" style="endArrow=none;html=1;rounded=0;entryX=0;entryY=0.5;entryDx=0;entryDy=0;" edge="1" parent="1">
          <mxGeometry width="50" height="50" relative="1" as="geometry">
            <mxPoint x="100" y="429.5" as="sourcePoint" />
            <mxPoint x="120" y="429.5" as="targetPoint" />
          </mxGeometry>
        </mxCell>
        <mxCell id="1ZyQG0UOCEFSKXoRxgIf-35" value="" style="endArrow=none;html=1;rounded=0;entryX=0;entryY=0.5;entryDx=0;entryDy=0;" edge="1" parent="1">
          <mxGeometry width="50" height="50" relative="1" as="geometry">
            <mxPoint x="100" y="550.5" as="sourcePoint" />
            <mxPoint x="120" y="550.5" as="targetPoint" />
          </mxGeometry>
        </mxCell>
      </root>
    </mxGraphModel>
  </diagram>
</mxfile>
